<svg xmlns="http://www.w3.org/2000/svg" xmlns:xlink="http://www.w3.org/1999/xlink" width="1920" zoomAndPan="magnify" viewBox="0 0 1440 809.999993" height="1080" preserveAspectRatio="xMidYMid meet" version="1.0"><defs><clipPath id="7f28d52c96"><path d="M 626.089844 318 L 807 318 L 807 498.996094 L 626.089844 498.996094 Z M 626.089844 318 " clip-rule="nonzero"/></clipPath><clipPath id="0a19bab69c"><path d="M 701.140625 401.816406 L 736.738281 401.816406 L 736.738281 426.257812 L 701.140625 426.257812 Z M 701.140625 401.816406 " clip-rule="nonzero"/></clipPath><clipPath id="164f4653cf"><path d="M 727.648438 411.675781 C 707.25 422.851562 704.699219 425.699219 703.199219 426.148438 C 702.601562 426.300781 702.148438 426.300781 701.851562 426.074219 C 701.476562 425.851562 701.175781 425.25 701.175781 424.875 C 701.101562 424.425781 701.25 424.125 701.773438 423.601562 C 703.726562 421.273438 715.574219 413.699219 721.574219 409.800781 C 726.375 406.726562 732.449219 401.925781 734.773438 401.851562 C 735.675781 401.773438 736.351562 402.300781 736.574219 402.75 C 736.800781 403.125 736.648438 403.726562 736.199219 404.398438 C 734.699219 406.425781 726.226562 410.550781 721.273438 413.25 C 716.550781 415.800781 709.574219 420.300781 707.324219 420.226562 C 706.574219 420.226562 705.976562 419.851562 705.824219 419.398438 C 705.601562 419.023438 705.601562 418.425781 706.050781 417.75 C 707.324219 415.648438 716.25 410.625 719.851562 408.300781 C 722.175781 406.800781 724.273438 404.925781 725.625 404.773438 C 726.300781 404.773438 726.976562 405.074219 727.199219 405.523438 C 727.425781 405.898438 727.5 406.574219 727.125 407.175781 C 726.148438 408.75 719.175781 412.5 717.300781 412.5 C 716.625 412.574219 716.023438 412.199219 715.800781 411.75 C 715.574219 411.375 715.5 410.699219 715.949219 410.101562 C 717.148438 408.300781 726.898438 403.875 729.226562 403.726562 C 729.976562 403.648438 730.574219 403.875 730.800781 404.25 C 731.101562 404.625 731.101562 405.601562 730.726562 406.199219 C 730.125 407.175781 727.574219 408.449219 726.449219 408.523438 C 725.773438 408.601562 725.023438 408.375 724.726562 408 C 724.425781 407.699219 724.351562 407.023438 724.5 406.648438 C 724.648438 406.273438 725.101562 405.75 725.550781 405.675781 C 725.925781 405.601562 726.601562 405.675781 726.898438 405.976562 C 727.199219 406.351562 727.5 407.324219 727.273438 407.773438 C 727.050781 408.226562 726.148438 408.675781 725.625 408.601562 C 725.175781 408.523438 724.425781 407.773438 724.425781 407.25 C 724.425781 406.5 725.925781 404.925781 726.976562 404.324219 C 727.949219 403.800781 729.601562 403.5 730.273438 403.800781 C 730.726562 403.949219 731.023438 404.476562 731.101562 404.925781 C 731.175781 405.300781 731.175781 405.75 730.726562 406.199219 C 729.300781 407.851562 719.550781 412.574219 717.300781 412.5 C 716.550781 412.5 716.023438 412.199219 715.800781 411.75 C 715.574219 411.449219 715.5 410.851562 715.726562 410.398438 C 716.25 409.425781 718.648438 408.148438 720.375 407.175781 C 722.101562 406.199219 724.800781 404.625 726 404.773438 C 726.601562 404.851562 727.199219 405.375 727.351562 405.824219 C 727.5 406.273438 727.351562 406.800781 726.824219 407.476562 C 725.25 409.648438 715.351562 415.875 711.75 418.050781 C 709.875 419.175781 708.375 420.226562 707.324219 420.226562 C 706.648438 420.226562 705.976562 419.851562 705.824219 419.398438 C 705.601562 418.949219 705.75 418.273438 706.351562 417.523438 C 708.75 414.375 730.425781 402.300781 734.476562 402 C 735.523438 401.851562 736.351562 402.226562 736.574219 402.75 C 736.800781 403.273438 736.351562 404.25 735.601562 405.074219 C 733.875 407.101562 727.875 409.351562 723.449219 412.125 C 717.898438 415.726562 708.898438 423.300781 705.148438 425.101562 C 703.726562 425.773438 702.449219 426.375 701.851562 426.074219 C 701.398438 425.773438 701.101562 424.800781 701.25 424.125 C 701.476562 423.300781 702.375 422.699219 703.574219 421.726562 C 706.125 419.773438 712.648438 416.175781 716.773438 413.851562 C 720.300781 411.976562 724.726562 408.824219 726.675781 408.824219 C 727.5 408.898438 728.25 409.351562 728.398438 409.800781 C 728.550781 410.25 727.648438 411.675781 727.648438 411.675781 " clip-rule="nonzero"/></clipPath></defs><path fill="#553410" d="M 675.816406 416.472656 L 753.507812 338.777344 L 786.261719 371.53125 L 708.566406 449.222656 L 671.726562 453.3125 Z M 675.816406 416.472656 " fill-opacity="1" fill-rule="nonzero"/><path fill="#553410" d="M 763.429688 328.847656 L 776.824219 315.457031 C 777.363281 314.921875 777.949219 314.445312 778.582031 314.023438 C 779.214844 313.605469 779.882812 313.25 780.585938 312.960938 C 781.289062 312.667969 782.011719 312.449219 782.757812 312.304688 C 783.5 312.15625 784.253906 312.082031 785.015625 312.082031 C 785.773438 312.082031 786.527344 312.15625 787.269531 312.304688 C 788.015625 312.449219 788.742188 312.667969 789.441406 312.960938 C 790.144531 313.25 790.8125 313.605469 791.445312 314.023438 C 792.078125 314.445312 792.664062 314.921875 793.203125 315.457031 L 809.574219 331.835938 C 810.109375 332.375 810.589844 332.960938 811.011719 333.59375 C 811.433594 334.222656 811.789062 334.890625 812.078125 335.59375 C 812.367188 336.296875 812.589844 337.019531 812.734375 337.765625 C 812.882812 338.511719 812.957031 339.265625 812.957031 340.023438 C 812.957031 340.785156 812.882812 341.539062 812.734375 342.28125 C 812.589844 343.027344 812.367188 343.753906 812.078125 344.453125 C 811.789062 345.15625 811.433594 345.824219 811.011719 346.457031 C 810.589844 347.089844 810.109375 347.675781 809.574219 348.214844 L 796.1875 361.601562 Z M 763.429688 328.847656 " fill-opacity="1" fill-rule="nonzero"/><g clip-path="url(#7f28d52c96)"><path fill="#553410" d="M 799.609375 412.1875 C 799.171875 412.1875 798.738281 412.230469 798.308594 412.316406 C 797.878906 412.402344 797.460938 412.53125 797.054688 412.695312 C 796.652344 412.863281 796.265625 413.070312 795.902344 413.3125 C 795.539062 413.558594 795.199219 413.835938 794.890625 414.144531 C 794.582031 414.453125 794.304688 414.789062 794.0625 415.15625 C 793.816406 415.519531 793.613281 415.902344 793.445312 416.308594 C 793.277344 416.714844 793.148438 417.132812 793.0625 417.5625 C 792.980469 417.992188 792.9375 418.425781 792.9375 418.863281 L 792.9375 478.929688 C 792.9375 479.367188 792.894531 479.800781 792.808594 480.230469 C 792.722656 480.660156 792.59375 481.078125 792.429688 481.480469 C 792.261719 481.886719 792.054688 482.269531 791.8125 482.636719 C 791.566406 483 791.292969 483.335938 790.980469 483.648438 C 790.671875 483.957031 790.335938 484.234375 789.96875 484.476562 C 789.605469 484.71875 789.222656 484.925781 788.816406 485.09375 C 788.410156 485.261719 787.992188 485.386719 787.5625 485.472656 C 787.132812 485.558594 786.699219 485.601562 786.261719 485.601562 L 646.109375 485.601562 C 645.671875 485.601562 645.238281 485.558594 644.808594 485.472656 C 644.378906 485.386719 643.960938 485.261719 643.558594 485.09375 C 643.152344 484.925781 642.765625 484.71875 642.402344 484.476562 C 642.039062 484.234375 641.703125 483.957031 641.390625 483.648438 C 641.082031 483.335938 640.804688 483 640.5625 482.636719 C 640.316406 482.269531 640.113281 481.886719 639.945312 481.480469 C 639.777344 481.078125 639.652344 480.660156 639.566406 480.230469 C 639.480469 479.800781 639.4375 479.367188 639.4375 478.929688 L 639.4375 338.777344 C 639.4375 338.339844 639.480469 337.90625 639.566406 337.472656 C 639.652344 337.042969 639.777344 336.628906 639.945312 336.222656 C 640.113281 335.816406 640.316406 335.433594 640.5625 335.070312 C 640.804688 334.703125 641.082031 334.367188 641.390625 334.058594 C 641.703125 333.746094 642.039062 333.472656 642.402344 333.226562 C 642.765625 332.984375 643.152344 332.777344 643.558594 332.609375 C 643.960938 332.441406 644.378906 332.316406 644.808594 332.230469 C 645.238281 332.144531 645.671875 332.101562 646.109375 332.101562 L 706.175781 332.101562 C 706.613281 332.101562 707.046875 332.058594 707.476562 331.972656 C 707.90625 331.890625 708.324219 331.761719 708.730469 331.59375 C 709.132812 331.425781 709.519531 331.222656 709.882812 330.976562 C 710.246094 330.734375 710.585938 330.457031 710.894531 330.148438 C 711.203125 329.839844 711.480469 329.5 711.726562 329.136719 C 711.96875 328.773438 712.171875 328.386719 712.339844 327.984375 C 712.507812 327.578125 712.636719 327.160156 712.722656 326.730469 C 712.808594 326.300781 712.847656 325.867188 712.847656 325.429688 C 712.847656 324.992188 712.808594 324.554688 712.722656 324.125 C 712.636719 323.695312 712.507812 323.28125 712.339844 322.875 C 712.171875 322.46875 711.96875 322.085938 711.726562 321.722656 C 711.480469 321.355469 711.203125 321.019531 710.894531 320.710938 C 710.585938 320.398438 710.246094 320.125 709.882812 319.878906 C 709.519531 319.636719 709.132812 319.429688 708.730469 319.261719 C 708.324219 319.09375 707.90625 318.96875 707.476562 318.882812 C 707.046875 318.796875 706.613281 318.753906 706.175781 318.753906 L 646.109375 318.753906 C 645.457031 318.753906 644.800781 318.785156 644.148438 318.851562 C 643.496094 318.914062 642.847656 319.011719 642.203125 319.140625 C 641.5625 319.269531 640.925781 319.425781 640.300781 319.617188 C 639.671875 319.808594 639.054688 320.027344 638.449219 320.277344 C 637.84375 320.53125 637.25 320.808594 636.671875 321.117188 C 636.09375 321.429688 635.53125 321.765625 634.988281 322.128906 C 634.441406 322.492188 633.917969 322.882812 633.410156 323.300781 C 632.902344 323.714844 632.417969 324.15625 631.953125 324.621094 C 631.488281 325.082031 631.050781 325.566406 630.632812 326.074219 C 630.21875 326.582031 629.828125 327.109375 629.464844 327.652344 C 629.097656 328.199219 628.761719 328.761719 628.453125 329.339844 C 628.144531 329.917969 627.863281 330.507812 627.613281 331.113281 C 627.363281 331.71875 627.140625 332.335938 626.953125 332.964844 C 626.761719 333.59375 626.601562 334.226562 626.472656 334.871094 C 626.347656 335.515625 626.25 336.160156 626.1875 336.8125 C 626.121094 337.464844 626.089844 338.121094 626.089844 338.777344 L 626.089844 478.929688 C 626.089844 479.582031 626.121094 480.238281 626.1875 480.890625 C 626.25 481.542969 626.347656 482.191406 626.472656 482.832031 C 626.601562 483.476562 626.761719 484.113281 626.953125 484.738281 C 627.140625 485.367188 627.363281 485.984375 627.613281 486.589844 C 627.863281 487.195312 628.144531 487.789062 628.453125 488.367188 C 628.761719 488.945312 629.097656 489.507812 629.464844 490.050781 C 629.828125 490.597656 630.21875 491.121094 630.632812 491.628906 C 631.050781 492.136719 631.488281 492.621094 631.953125 493.085938 C 632.417969 493.550781 632.902344 493.988281 633.410156 494.40625 C 633.917969 494.820312 634.441406 495.210938 634.988281 495.574219 C 635.53125 495.941406 636.09375 496.277344 636.671875 496.585938 C 637.25 496.894531 637.84375 497.175781 638.449219 497.425781 C 639.054688 497.675781 639.671875 497.898438 640.300781 498.085938 C 640.925781 498.277344 641.5625 498.4375 642.203125 498.566406 C 642.847656 498.691406 643.496094 498.789062 644.148438 498.851562 C 644.800781 498.917969 645.457031 498.949219 646.109375 498.949219 L 786.261719 498.949219 C 786.917969 498.949219 787.570312 498.917969 788.222656 498.851562 C 788.878906 498.789062 789.523438 498.691406 790.167969 498.566406 C 790.8125 498.4375 791.445312 498.277344 792.074219 498.085938 C 792.703125 497.898438 793.316406 497.675781 793.925781 497.425781 C 794.53125 497.175781 795.121094 496.894531 795.699219 496.585938 C 796.277344 496.277344 796.839844 495.941406 797.386719 495.574219 C 797.929688 495.210938 798.457031 494.820312 798.964844 494.40625 C 799.46875 493.988281 799.957031 493.550781 800.417969 493.085938 C 800.882812 492.621094 801.324219 492.136719 801.738281 491.628906 C 802.15625 491.121094 802.546875 490.597656 802.910156 490.050781 C 803.273438 489.507812 803.609375 488.945312 803.917969 488.367188 C 804.230469 487.789062 804.507812 487.195312 804.757812 486.589844 C 805.011719 485.984375 805.230469 485.367188 805.421875 484.738281 C 805.613281 484.113281 805.769531 483.476562 805.898438 482.832031 C 806.027344 482.191406 806.121094 481.542969 806.1875 480.890625 C 806.25 480.238281 806.285156 479.582031 806.285156 478.929688 L 806.285156 418.863281 C 806.285156 418.425781 806.242188 417.992188 806.15625 417.5625 C 806.070312 417.132812 805.941406 416.714844 805.777344 416.308594 C 805.609375 415.902344 805.402344 415.519531 805.160156 415.15625 C 804.914062 414.789062 804.640625 414.453125 804.328125 414.144531 C 804.019531 413.835938 803.683594 413.558594 803.316406 413.3125 C 802.953125 413.070312 802.570312 412.863281 802.164062 412.695312 C 801.757812 412.53125 801.339844 412.402344 800.910156 412.316406 C 800.480469 412.230469 800.046875 412.1875 799.609375 412.1875 Z M 799.609375 412.1875 " fill-opacity="1" fill-rule="nonzero"/></g><g clip-path="url(#0a19bab69c)"><g clip-path="url(#164f4653cf)"><path fill="#553410" d="M 698.175781 398.851562 L 739.703125 398.851562 L 739.703125 429.226562 L 698.175781 429.226562 Z M 698.175781 398.851562 " fill-opacity="1" fill-rule="nonzero"/></g></g></svg>