<svg xmlns="http://www.w3.org/2000/svg" xmlns:xlink="http://www.w3.org/1999/xlink" width="1920" zoomAndPan="magnify" viewBox="0 0 1440 809.999993" height="1080" preserveAspectRatio="xMidYMid meet" version="1.0"><defs><clipPath id="8b2802cb07"><path d="M 626.832031 335.796875 L 629.636719 335.796875 L 629.636719 338.203125 L 626.832031 338.203125 Z M 626.832031 335.796875 " clip-rule="nonzero"/></clipPath><clipPath id="744564b890"><path d="M 629.625 336.601562 C 628.425781 338.625 627.226562 338.25 626.925781 337.875 C 626.699219 337.425781 626.925781 336.226562 627.300781 335.925781 C 627.675781 335.625 629.324219 336 629.324219 336 " clip-rule="nonzero"/></clipPath><clipPath id="41d1088fcc"><path d="M 623.539062 335.292969 L 629.726562 335.292969 L 629.726562 338.5625 L 623.539062 338.5625 Z M 623.539062 335.292969 " clip-rule="nonzero"/></clipPath><clipPath id="0c45d21d8e"><path d="M 628.199219 338.550781 C 623.476562 337.5 623.625 336.449219 623.925781 336.074219 C 624.226562 335.773438 625.199219 335.550781 625.648438 335.699219 C 626.101562 335.851562 626.476562 336.449219 626.550781 336.824219 C 626.625 337.273438 626.398438 337.875 626.101562 338.175781 C 625.726562 338.476562 624.675781 338.550781 624.300781 338.324219 C 623.925781 338.175781 623.550781 337.574219 623.550781 337.125 C 623.550781 336.675781 624 335.925781 624.601562 335.625 C 625.351562 335.25 627.300781 335.175781 628.199219 335.550781 C 628.949219 335.851562 629.773438 336.75 629.699219 337.273438 C 629.699219 337.726562 628.199219 338.550781 628.199219 338.550781 " clip-rule="nonzero"/></clipPath><clipPath id="a5a99403c2"><path d="M 620.550781 330 L 819 330 L 819 479 L 620.550781 479 Z M 620.550781 330 " clip-rule="nonzero"/></clipPath><clipPath id="f41c4a2062"><path d="M 620.550781 453 L 819 453 L 819 463 L 620.550781 463 Z M 620.550781 453 " clip-rule="nonzero"/></clipPath></defs><g clip-path="url(#8b2802cb07)"><g clip-path="url(#744564b890)"><path fill="#553410" d="M 623.925781 332.925781 L 632.707031 332.925781 L 632.707031 341.476562 L 623.925781 341.476562 Z M 623.925781 332.925781 " fill-opacity="1" fill-rule="nonzero"/></g></g><g clip-path="url(#41d1088fcc)"><g clip-path="url(#0c45d21d8e)"><path fill="#553410" d="M 620.550781 332.550781 L 632.785156 332.550781 L 632.785156 341.550781 L 620.550781 341.550781 Z M 620.550781 332.550781 " fill-opacity="1" fill-rule="nonzero"/></g></g><g clip-path="url(#a5a99403c2)"><path fill="#553410" d="M 810.261719 470.316406 L 629.0625 470.316406 L 629.0625 338.535156 L 734.738281 338.535156 C 737.011719 338.535156 738.859375 336.691406 738.859375 334.417969 C 738.859375 332.144531 737.011719 330.296875 734.738281 330.296875 L 624.941406 330.296875 C 622.667969 330.296875 620.824219 332.144531 620.824219 334.417969 L 620.824219 474.433594 C 620.824219 476.707031 622.667969 478.554688 624.941406 478.554688 L 814.378906 478.554688 C 816.652344 478.554688 818.5 476.707031 818.5 474.433594 L 818.5 334.417969 C 818.5 332.144531 816.652344 330.296875 814.378906 330.296875 C 812.105469 330.296875 810.261719 332.144531 810.261719 334.417969 Z M 810.261719 470.316406 " fill-opacity="1" fill-rule="nonzero"/></g><g clip-path="url(#f41c4a2062)"><path fill="#553410" d="M 624.941406 462.082031 L 814.378906 462.082031 C 816.652344 462.082031 818.5 460.234375 818.5 457.960938 C 818.5 455.6875 816.652344 453.84375 814.378906 453.84375 L 624.941406 453.84375 C 622.667969 453.84375 620.824219 455.6875 620.824219 457.960938 C 620.824219 460.234375 622.667969 462.082031 624.941406 462.082031 Z M 624.941406 462.082031 " fill-opacity="1" fill-rule="nonzero"/></g><path fill="#553410" d="M 682.597656 503.261719 L 756.726562 503.261719 C 759 503.261719 760.84375 501.417969 760.84375 499.144531 C 760.84375 496.871094 759 495.027344 756.726562 495.027344 L 682.597656 495.027344 C 680.324219 495.027344 678.480469 496.871094 678.480469 499.144531 C 678.480469 501.417969 680.324219 503.261719 682.597656 503.261719 Z M 682.597656 503.261719 " fill-opacity="1" fill-rule="nonzero"/><path fill="#553410" d="M 694.738281 500.453125 L 702.972656 475.742188 C 703.703125 473.578125 702.523438 471.238281 700.378906 470.53125 C 698.210938 469.800781 695.875 470.980469 695.167969 473.125 L 686.929688 497.835938 C 686.199219 500.003906 687.378906 502.339844 689.527344 503.046875 C 691.691406 503.777344 694.03125 502.597656 694.738281 500.453125 Z M 694.738281 500.453125 " fill-opacity="1" fill-rule="nonzero"/><path fill="#553410" d="M 744.585938 500.453125 L 736.347656 475.742188 C 735.621094 473.578125 736.800781 471.238281 738.945312 470.53125 C 741.109375 469.800781 743.449219 470.980469 744.15625 473.125 L 752.390625 497.835938 C 753.121094 500.003906 751.941406 502.339844 749.796875 503.046875 C 747.628906 503.777344 745.292969 502.597656 744.585938 500.453125 Z M 744.585938 500.453125 " fill-opacity="1" fill-rule="nonzero"/><path fill="#553410" d="M 796.921875 342.546875 L 712.648438 416.542969 C 711.855469 417.230469 708.101562 411.933594 703.917969 407.816406 C 699.371094 403.332031 694.4375 399.941406 695.1875 399.085938 L 769.1875 314.8125 C 776.824219 306.210938 789.671875 305.824219 797.777344 313.953125 C 805.929688 322.082031 805.519531 334.910156 796.921875 342.546875 Z M 791.964844 319.765625 C 787.183594 315.003906 779.847656 315.21875 775.363281 320.261719 L 703.917969 401.617188 L 710.117188 407.816406 L 791.449219 336.390625 C 796.511719 331.886719 796.75 324.550781 791.964844 319.765625 Z M 791.964844 319.765625 " fill-opacity="1" fill-rule="nonzero"/><path fill="#553410" d="M 659.839844 436.578125 C 657.375 434.582031 657.996094 430.65625 660.957031 429.519531 C 666.253906 427.503906 669.019531 423.75 672.753906 415.128906 C 676.097656 407.40625 677.019531 405.605469 679.636719 402.96875 C 687.679688 394.921875 700.722656 394.921875 708.765625 402.96875 C 716.808594 411.011719 716.808594 424.050781 708.765625 432.09375 C 697.933594 442.90625 673.953125 447.902344 659.839844 436.578125 Z M 702.929688 426.261719 C 707.757812 421.433594 707.757812 413.628906 702.929688 408.800781 C 698.105469 403.976562 690.296875 403.976562 685.472656 408.800781 C 683.925781 410.34375 683.113281 411.910156 680.324219 418.390625 C 677.300781 425.382812 674.574219 430.035156 670.734375 433.273438 C 681.417969 437.027344 696.132812 433.082031 702.929688 426.261719 Z M 702.929688 426.261719 " fill-opacity="1" fill-rule="nonzero"/><path fill="#553410" d="M 712.324219 387.503906 L 724.207031 399.320312 C 725.816406 400.929688 728.414062 400.929688 730.019531 399.320312 C 731.628906 397.710938 731.628906 395.09375 730.019531 393.488281 L 718.136719 381.667969 C 716.53125 380.058594 713.914062 380.082031 712.304688 381.691406 C 710.695312 383.296875 710.71875 385.894531 712.324219 387.503906 Z M 712.324219 387.503906 " fill-opacity="1" fill-rule="nonzero"/></svg>