<svg xmlns="http://www.w3.org/2000/svg" xmlns:xlink="http://www.w3.org/1999/xlink" width="1920" zoomAndPan="magnify" viewBox="0 0 1440 809.999993" height="1080" preserveAspectRatio="xMidYMid meet" version="1.0"><defs><clipPath id="432350edd4"><path d="M 584 275 L 856 275 L 856 558.984375 L 584 558.984375 Z M 584 275 " clip-rule="nonzero"/></clipPath><clipPath id="409d0e347d"><path d="M 705.582031 338.796875 L 708.386719 338.796875 L 708.386719 341.203125 L 705.582031 341.203125 Z M 705.582031 338.796875 " clip-rule="nonzero"/></clipPath><clipPath id="58c3565b73"><path d="M 708.375 339.601562 C 707.175781 341.625 705.976562 341.25 705.675781 340.875 C 705.449219 340.425781 705.675781 339.226562 706.050781 338.925781 C 706.425781 338.625 708.074219 339 708.074219 339 " clip-rule="nonzero"/></clipPath><clipPath id="0032ec8f41"><path d="M 702.289062 338.292969 L 708.476562 338.292969 L 708.476562 341.5625 L 702.289062 341.5625 Z M 702.289062 338.292969 " clip-rule="nonzero"/></clipPath><clipPath id="4c8af845be"><path d="M 706.949219 341.550781 C 702.226562 340.5 702.375 339.449219 702.675781 339.074219 C 702.976562 338.773438 703.949219 338.550781 704.398438 338.699219 C 704.851562 338.851562 705.226562 339.449219 705.300781 339.824219 C 705.375 340.273438 705.148438 340.875 704.851562 341.175781 C 704.476562 341.476562 703.425781 341.550781 703.050781 341.324219 C 702.675781 341.175781 702.300781 340.574219 702.300781 340.125 C 702.300781 339.675781 702.75 338.925781 703.351562 338.625 C 704.101562 338.25 706.050781 338.175781 706.949219 338.550781 C 707.699219 338.851562 708.523438 339.75 708.449219 340.273438 C 708.449219 340.726562 706.949219 341.550781 706.949219 341.550781 " clip-rule="nonzero"/></clipPath></defs><g clip-path="url(#432350edd4)"><path fill="#553410" d="M 840.679688 336.957031 L 814.914062 336.957031 C 819.601562 328.617188 816.429688 305.628906 812.160156 292.84375 C 798.175781 251.707031 743.066406 296.433594 733.519531 304.902344 C 729.398438 301.59375 719.222656 303.164062 714.332031 302.8125 C 711.710938 302.824219 709.285156 303.519531 707.054688 304.898438 C 697.59375 296.492188 642.410156 251.722656 628.433594 292.792969 C 624.164062 305.585938 620.960938 328.605469 625.667969 336.953125 L 599.886719 336.953125 C 598.890625 336.957031 597.902344 337.054688 596.921875 337.25 C 595.945312 337.445312 594.992188 337.734375 594.070312 338.117188 C 593.148438 338.5 592.273438 338.96875 591.445312 339.523438 C 590.613281 340.078125 589.847656 340.707031 589.140625 341.414062 C 588.433594 342.121094 587.804688 342.886719 587.25 343.71875 C 586.695312 344.546875 586.226562 345.421875 585.84375 346.34375 C 585.460938 347.265625 585.171875 348.214844 584.976562 349.195312 C 584.78125 350.175781 584.683594 351.164062 584.683594 352.160156 L 584.683594 405.753906 C 584.683594 406.085938 584.714844 406.417969 584.78125 406.742188 C 584.84375 407.070312 584.941406 407.386719 585.070312 407.695312 C 585.195312 408.003906 585.351562 408.292969 585.535156 408.570312 C 585.722656 408.847656 585.933594 409.105469 586.167969 409.339844 C 586.402344 409.574219 586.660156 409.785156 586.933594 409.96875 C 587.210938 410.152344 587.503906 410.308594 587.8125 410.4375 C 588.117188 410.566406 588.4375 410.660156 588.761719 410.726562 C 589.089844 410.792969 589.417969 410.824219 589.75 410.824219 L 599.683594 410.824219 L 599.683594 543.941406 C 599.6875 544.9375 599.785156 545.925781 599.980469 546.90625 C 600.175781 547.886719 600.464844 548.835938 600.847656 549.757812 C 601.230469 550.679688 601.699219 551.554688 602.253906 552.386719 C 602.808594 553.214844 603.4375 553.984375 604.144531 554.6875 C 604.851562 555.394531 605.617188 556.023438 606.449219 556.578125 C 607.277344 557.132812 608.152344 557.601562 609.074219 557.984375 C 609.996094 558.367188 610.945312 558.65625 611.925781 558.851562 C 612.90625 559.046875 613.894531 559.144531 614.890625 559.148438 C 641.890625 559.148438 825.679688 559.148438 825.679688 559.148438 C 826.675781 559.144531 827.664062 559.046875 828.644531 558.851562 C 829.621094 558.65625 830.574219 558.367188 831.496094 557.984375 C 832.417969 557.601562 833.292969 557.132812 834.121094 556.578125 C 834.953125 556.023438 835.71875 555.394531 836.425781 554.6875 C 837.132812 553.984375 837.761719 553.214844 838.316406 552.386719 C 838.871094 551.554688 839.339844 550.679688 839.722656 549.757812 C 840.105469 548.835938 840.394531 547.886719 840.589844 546.90625 C 840.785156 545.925781 840.882812 544.9375 840.882812 543.941406 L 840.882812 410.824219 L 850.820312 410.824219 C 851.152344 410.824219 851.480469 410.789062 851.808594 410.726562 C 852.132812 410.660156 852.453125 410.566406 852.757812 410.4375 C 853.066406 410.308594 853.359375 410.152344 853.636719 409.96875 C 853.910156 409.785156 854.167969 409.574219 854.402344 409.339844 C 854.636719 409.105469 854.847656 408.847656 855.035156 408.570312 C 855.21875 408.292969 855.375 408.003906 855.5 407.695312 C 855.628906 407.386719 855.726562 407.070312 855.789062 406.742188 C 855.855469 406.417969 855.886719 406.085938 855.886719 405.753906 L 855.886719 352.160156 C 855.886719 351.164062 855.789062 350.175781 855.59375 349.195312 C 855.398438 348.214844 855.109375 347.265625 854.726562 346.34375 C 854.34375 345.421875 853.875 344.546875 853.320312 343.71875 C 852.765625 342.886719 852.136719 342.121094 851.429688 341.414062 C 850.722656 340.707031 849.957031 340.078125 849.125 339.523438 C 848.296875 338.96875 847.421875 338.5 846.5 338.117188 C 845.574219 337.734375 844.625 337.445312 843.648438 337.25 C 842.667969 337.054688 841.679688 336.957031 840.679688 336.957031 Z M 746.871094 336.957031 C 759.933594 324.941406 791.464844 317.96875 806.742188 315.800781 C 807.78125 324.457031 807.640625 335.191406 801.125 336.957031 Z M 741.800781 400.6875 C 741.425781 400.648438 699.136719 400.714844 698.769531 400.6875 L 698.769531 347.09375 C 698.769531 347.09375 737.695312 347.101562 741.800781 347.09375 Z M 785.167969 286.015625 C 798.742188 282.621094 803.261719 294.914062 804.972656 305.835938 C 791.875 307.742188 758.933594 313.851562 740.339844 328.894531 C 740.632812 323.566406 740.421875 318.261719 739.707031 312.972656 C 746.320312 307.019531 753.449219 301.777344 761.101562 297.238281 C 768.753906 292.703125 776.777344 288.960938 785.167969 286.015625 Z M 714.332031 312.953125 L 726.238281 312.953125 C 726.761719 312.953125 727.269531 313.054688 727.753906 313.253906 C 728.238281 313.457031 728.667969 313.742188 729.039062 314.113281 C 729.410156 314.488281 729.699219 314.914062 729.898438 315.402344 C 730.101562 315.886719 730.203125 316.394531 730.203125 316.917969 L 730.203125 336.957031 L 710.367188 336.957031 L 710.367188 316.917969 C 710.367188 316.394531 710.46875 315.886719 710.671875 315.402344 C 710.871094 314.914062 711.160156 314.488281 711.53125 314.113281 C 711.902344 313.742188 712.332031 313.457031 712.816406 313.253906 C 713.300781 313.054688 713.808594 312.953125 714.332031 312.949219 Z M 638.167969 295.609375 C 638.421875 294.730469 638.757812 293.882812 639.175781 293.066406 C 639.59375 292.253906 640.089844 291.488281 640.660156 290.773438 C 641.230469 290.054688 641.863281 289.398438 642.5625 288.808594 C 643.257812 288.214844 644.007812 287.695312 644.808594 287.25 C 645.609375 286.804688 646.445312 286.441406 647.316406 286.164062 C 648.1875 285.882812 649.078125 285.6875 649.988281 285.582031 C 650.898438 285.476562 651.808594 285.460938 652.722656 285.53125 C 653.636719 285.605469 654.53125 285.765625 655.414062 286.015625 C 663.804688 288.960938 671.824219 292.703125 679.476562 297.238281 C 687.125 301.773438 694.253906 307.015625 700.863281 312.964844 C 700.1875 318.253906 699.976562 323.5625 700.230469 328.886719 C 681.632812 313.847656 648.703125 307.742188 635.605469 305.835938 C 636.332031 302.472656 637.15625 299.046875 638.167969 295.609375 Z M 633.839844 315.800781 C 649.699219 318.046875 679.039062 324.566406 694.082031 336.957031 L 639.453125 336.957031 C 632.9375 335.191406 632.800781 324.457031 633.839844 315.800781 Z M 594.820312 352.160156 C 594.820312 351.828125 594.851562 351.5 594.917969 351.171875 C 594.984375 350.847656 595.078125 350.53125 595.207031 350.222656 C 595.335938 349.914062 595.492188 349.625 595.675781 349.347656 C 595.859375 349.070312 596.070312 348.8125 596.304688 348.578125 C 596.542969 348.34375 596.796875 348.132812 597.074219 347.949219 C 597.351562 347.761719 597.640625 347.605469 597.949219 347.480469 C 598.257812 347.351562 598.574219 347.257812 598.898438 347.191406 C 599.226562 347.125 599.554688 347.09375 599.886719 347.09375 L 688.632812 347.09375 L 688.632812 400.6875 C 682.550781 400.675781 598.460938 400.695312 594.820312 400.6875 Z M 609.824219 543.941406 L 609.824219 410.824219 L 695.398438 410.824219 L 695.398438 549.007812 L 614.890625 549.007812 C 614.558594 549.007812 614.230469 548.976562 613.902344 548.910156 C 613.578125 548.847656 613.261719 548.75 612.953125 548.621094 C 612.644531 548.496094 612.351562 548.339844 612.078125 548.152344 C 611.800781 547.96875 611.542969 547.757812 611.308594 547.523438 C 611.074219 547.289062 610.863281 547.03125 610.679688 546.753906 C 610.492188 546.480469 610.335938 546.1875 610.210938 545.878906 C 610.082031 545.574219 609.988281 545.253906 609.921875 544.929688 C 609.855469 544.601562 609.824219 544.273438 609.824219 543.941406 Z M 705.535156 549.007812 L 705.535156 410.824219 L 735.035156 410.824219 L 735.035156 549.007812 Z M 830.746094 543.941406 C 830.746094 544.273438 830.714844 544.601562 830.648438 544.929688 C 830.582031 545.253906 830.488281 545.574219 830.359375 545.878906 C 830.230469 546.1875 830.074219 546.480469 829.890625 546.753906 C 829.707031 547.03125 829.496094 547.289062 829.261719 547.523438 C 829.027344 547.757812 828.769531 547.96875 828.492188 548.152344 C 828.214844 548.339844 827.925781 548.496094 827.617188 548.621094 C 827.308594 548.75 826.992188 548.847656 826.667969 548.910156 C 826.339844 548.976562 826.011719 549.007812 825.679688 549.007812 L 745.171875 549.007812 L 745.171875 410.824219 L 830.746094 410.824219 Z M 845.75 400.6875 C 842.519531 400.707031 757.609375 400.671875 751.941406 400.6875 L 751.9375 347.09375 L 840.683594 347.09375 C 841.015625 347.09375 841.34375 347.125 841.671875 347.191406 C 841.996094 347.257812 842.3125 347.351562 842.621094 347.480469 C 842.929688 347.605469 843.21875 347.761719 843.496094 347.949219 C 843.773438 348.132812 844.027344 348.34375 844.265625 348.578125 C 844.5 348.8125 844.710938 349.070312 844.894531 349.347656 C 845.078125 349.625 845.234375 349.914062 845.363281 350.222656 C 845.492188 350.53125 845.585938 350.847656 845.652344 351.171875 C 845.71875 351.5 845.75 351.828125 845.75 352.160156 Z M 845.75 400.6875 " fill-opacity="1" fill-rule="nonzero"/></g><g clip-path="url(#409d0e347d)"><g clip-path="url(#58c3565b73)"><path fill="#553410" d="M 702.675781 335.925781 L 711.457031 335.925781 L 711.457031 344.476562 L 702.675781 344.476562 Z M 702.675781 335.925781 " fill-opacity="1" fill-rule="nonzero"/></g></g><g clip-path="url(#0032ec8f41)"><g clip-path="url(#4c8af845be)"><path fill="#553410" d="M 699.300781 335.550781 L 711.535156 335.550781 L 711.535156 344.550781 L 699.300781 344.550781 Z M 699.300781 335.550781 " fill-opacity="1" fill-rule="nonzero"/></g></g></svg>