<svg xmlns="http://www.w3.org/2000/svg" xmlns:xlink="http://www.w3.org/1999/xlink" width="1920" zoomAndPan="magnify" viewBox="0 0 1440 809.999993" height="1080" preserveAspectRatio="xMidYMid meet" version="1.0"><defs><clipPath id="197d51d9ac"><path d="M 758.832031 325.296875 L 761.636719 325.296875 L 761.636719 327.703125 L 758.832031 327.703125 Z M 758.832031 325.296875 " clip-rule="nonzero"/></clipPath><clipPath id="c7e33823bc"><path d="M 761.625 326.101562 C 760.425781 328.125 759.226562 327.75 758.925781 327.375 C 758.699219 326.925781 758.925781 325.726562 759.300781 325.425781 C 759.675781 325.125 761.324219 325.5 761.324219 325.5 " clip-rule="nonzero"/></clipPath><clipPath id="d56f319808"><path d="M 755.539062 324.792969 L 761.726562 324.792969 L 761.726562 328.0625 L 755.539062 328.0625 Z M 755.539062 324.792969 " clip-rule="nonzero"/></clipPath><clipPath id="8fe8ecb2b7"><path d="M 760.199219 328.050781 C 755.476562 327 755.625 325.949219 755.925781 325.574219 C 756.226562 325.273438 757.199219 325.050781 757.648438 325.199219 C 758.101562 325.351562 758.476562 325.949219 758.550781 326.324219 C 758.625 326.773438 758.398438 327.375 758.101562 327.675781 C 757.726562 327.976562 756.675781 328.050781 756.300781 327.824219 C 755.925781 327.675781 755.550781 327.074219 755.550781 326.625 C 755.550781 326.175781 756 325.425781 756.601562 325.125 C 757.351562 324.75 759.300781 324.675781 760.199219 325.050781 C 760.949219 325.351562 761.773438 326.25 761.699219 326.773438 C 761.699219 327.226562 760.199219 328.050781 760.199219 328.050781 " clip-rule="nonzero"/></clipPath><clipPath id="41c973afbf"><path d="M 629.992188 315.605469 L 809.992188 315.605469 L 809.992188 494 L 629.992188 494 Z M 629.992188 315.605469 " clip-rule="nonzero"/></clipPath></defs><g clip-path="url(#197d51d9ac)"><g clip-path="url(#c7e33823bc)"><path fill="#553410" d="M 755.925781 322.425781 L 764.707031 322.425781 L 764.707031 330.976562 L 755.925781 330.976562 Z M 755.925781 322.425781 " fill-opacity="1" fill-rule="nonzero"/></g></g><g clip-path="url(#d56f319808)"><g clip-path="url(#8fe8ecb2b7)"><path fill="#553410" d="M 752.550781 322.050781 L 764.785156 322.050781 L 764.785156 331.050781 L 752.550781 331.050781 Z M 752.550781 322.050781 " fill-opacity="1" fill-rule="nonzero"/></g></g><g clip-path="url(#41c973afbf)"><path fill="#553410" d="M 793.832031 401.050781 L 793.832031 385.089844 L 807.167969 385.089844 C 808.582031 385.089844 809.589844 384.082031 809.589844 382.667969 L 809.589844 318.421875 C 809.589844 317.007812 808.378906 316 807.167969 315.796875 L 713.023438 315.796875 C 711.609375 315.796875 710.601562 317.007812 710.601562 318.222656 L 710.601562 333.574219 L 697.0625 333.574219 C 668.78125 333.574219 645.953125 356.402344 645.953125 384.6875 L 645.953125 400.847656 C 636.054688 401.65625 629.992188 409.738281 629.992188 422.464844 L 629.992188 438.628906 C 629.992188 451.960938 636.660156 460.246094 647.367188 460.445312 C 651.609375 478.425781 666.355469 491.960938 690.398438 492.566406 C 690.398438 492.566406 705.953125 492.566406 706.15625 492.367188 C 707.570312 493.375 709.1875 493.980469 710.800781 493.980469 L 724.136719 493.980469 C 728.378906 493.78125 731.8125 490.144531 731.609375 485.699219 C 731.410156 481.660156 728.175781 478.425781 724.136719 478.222656 L 710.601562 478.222656 C 706.359375 478.222656 702.921875 481.660156 702.921875 485.902344 C 702.921875 486.304688 702.921875 486.710938 703.125 487.113281 L 690.800781 487.113281 C 671.8125 486.304688 659.691406 477.011719 654.234375 464.890625 C 654.640625 464.890625 662.519531 464.890625 662.519531 464.890625 C 667.570312 464.890625 671.609375 460.851562 671.609375 456 L 671.609375 405.089844 C 671.609375 400.042969 667.570312 396.203125 662.519531 396.203125 L 655.246094 396.203125 C 653.628906 396.203125 652.214844 396.605469 650.800781 397.414062 L 650.800781 384.6875 C 650.800781 359.230469 671.40625 338.625 696.863281 338.625 L 710.398438 338.625 L 710.398438 382.667969 C 710.398438 384.082031 711.609375 385.089844 712.824219 385.089844 L 728.175781 385.089844 L 728.175781 400.242188 C 728.175781 401.253906 728.78125 402.261719 729.792969 402.667969 C 731.003906 403.273438 732.015625 402.667969 732.621094 402.0625 L 749.589844 385.089844 L 788.785156 385.089844 L 788.785156 397.011719 C 787.570312 396.40625 786.359375 396.203125 784.945312 396.203125 L 777.671875 396.203125 C 772.621094 396.203125 768.78125 400.242188 768.78125 405.089844 L 768.78125 456.40625 C 768.78125 461.457031 772.824219 465.292969 777.671875 465.292969 L 784.945312 465.292969 C 788.175781 465.292969 791.207031 463.476562 792.824219 460.648438 C 803.734375 460.648438 810.601562 452.367188 810.601562 438.828125 L 810.601562 422.667969 C 810.398438 409.941406 804.136719 401.65625 793.832031 401.050781 Z M 710.601562 483.476562 L 724.136719 483.476562 C 725.550781 483.679688 726.761719 484.890625 726.558594 486.507812 C 726.359375 487.921875 725.347656 488.929688 724.136719 488.929688 L 710.601562 488.929688 C 709.1875 488.730469 707.972656 487.515625 708.175781 485.902344 C 708.378906 484.6875 709.386719 483.679688 710.601562 483.476562 Z M 634.839844 438.628906 L 634.839844 422.464844 C 634.839844 417.617188 636.054688 406.910156 645.75 405.898438 L 645.75 455.195312 C 636.054688 453.980469 634.839844 443.476562 634.839844 438.628906 Z M 730.195312 334.585938 L 790.199219 334.585938 C 791.613281 334.585938 792.621094 335.796875 792.621094 337.007812 C 792.621094 338.222656 791.410156 339.433594 790.199219 339.433594 L 730.195312 339.433594 C 728.78125 339.433594 727.773438 338.222656 727.773438 337.007812 C 727.773438 335.796875 728.78125 334.585938 730.195312 334.585938 Z M 757.671875 350.34375 C 757.671875 351.757812 756.460938 352.765625 755.246094 352.765625 L 745.347656 352.765625 C 743.933594 352.765625 742.925781 351.554688 742.925781 350.34375 C 742.925781 349.132812 744.136719 347.917969 745.347656 347.917969 L 755.246094 347.917969 C 756.460938 347.917969 757.671875 348.929688 757.671875 350.34375 Z M 730.195312 347.71875 L 735.246094 347.71875 C 736.660156 347.71875 737.671875 348.929688 737.671875 350.140625 C 737.671875 351.351562 736.460938 352.566406 735.246094 352.566406 L 730.195312 352.566406 C 728.78125 352.566406 727.773438 351.351562 727.773438 350.140625 C 727.773438 348.929688 728.78125 347.71875 730.195312 347.71875 Z M 767.570312 365.898438 L 730.195312 365.898438 C 728.78125 365.898438 727.773438 364.6875 727.773438 363.476562 C 727.773438 362.261719 728.984375 361.050781 730.195312 361.050781 L 767.367188 361.050781 C 768.78125 361.050781 769.792969 362.261719 769.792969 363.476562 C 769.792969 364.6875 768.78125 365.898438 767.570312 365.898438 Z M 775.246094 352.765625 L 765.144531 352.765625 C 763.730469 352.765625 762.722656 351.554688 762.722656 350.34375 C 762.722656 349.132812 763.933594 347.917969 765.144531 347.917969 L 775.046875 347.917969 C 776.460938 347.917969 777.46875 349.132812 777.46875 350.34375 C 777.46875 351.554688 776.460938 352.765625 775.246094 352.765625 Z M 782.519531 350.34375 C 782.519531 348.929688 783.734375 347.917969 784.945312 347.917969 L 789.996094 347.917969 C 791.410156 347.917969 792.417969 349.132812 792.417969 350.34375 C 792.417969 351.554688 791.207031 352.765625 789.996094 352.765625 L 784.945312 352.765625 C 783.734375 352.765625 782.519531 351.757812 782.519531 350.34375 Z M 805.347656 439.03125 C 805.347656 443.878906 804.136719 454.789062 793.832031 455.597656 L 793.832031 406.304688 C 804.136719 407.113281 805.347656 418.019531 805.347656 422.871094 Z M 805.347656 439.03125 " fill-opacity="1" fill-rule="nonzero"/></g></svg>