<svg xmlns="http://www.w3.org/2000/svg" xmlns:xlink="http://www.w3.org/1999/xlink" width="1920" zoomAndPan="magnify" viewBox="0 0 1440 809.999993" height="1080" preserveAspectRatio="xMidYMid meet" version="1.0"><defs><clipPath id="8e587c68ff"><path d="M 638.140625 328.316406 L 673.738281 328.316406 L 673.738281 352.757812 L 638.140625 352.757812 Z M 638.140625 328.316406 " clip-rule="nonzero"/></clipPath><clipPath id="04cb91b57b"><path d="M 664.648438 338.175781 C 644.25 349.351562 641.699219 352.199219 640.199219 352.648438 C 639.601562 352.800781 639.148438 352.800781 638.851562 352.574219 C 638.476562 352.351562 638.175781 351.75 638.175781 351.375 C 638.101562 350.925781 638.25 350.625 638.773438 350.101562 C 640.726562 347.773438 652.574219 340.199219 658.574219 336.300781 C 663.375 333.226562 669.449219 328.425781 671.773438 328.351562 C 672.675781 328.273438 673.351562 328.800781 673.574219 329.25 C 673.800781 329.625 673.648438 330.226562 673.199219 330.898438 C 671.699219 332.925781 663.226562 337.050781 658.273438 339.75 C 653.550781 342.300781 646.574219 346.800781 644.324219 346.726562 C 643.574219 346.726562 642.976562 346.351562 642.824219 345.898438 C 642.601562 345.523438 642.601562 344.925781 643.050781 344.25 C 644.324219 342.148438 653.25 337.125 656.851562 334.800781 C 659.175781 333.300781 661.273438 331.425781 662.625 331.273438 C 663.300781 331.273438 663.976562 331.574219 664.199219 332.023438 C 664.425781 332.398438 664.5 333.074219 664.125 333.675781 C 663.148438 335.25 656.175781 339 654.300781 339 C 653.625 339.074219 653.023438 338.699219 652.800781 338.25 C 652.574219 337.875 652.5 337.199219 652.949219 336.601562 C 654.148438 334.800781 663.898438 330.375 666.226562 330.226562 C 666.976562 330.148438 667.574219 330.375 667.800781 330.75 C 668.101562 331.125 668.101562 332.101562 667.726562 332.699219 C 667.125 333.675781 664.574219 334.949219 663.449219 335.023438 C 662.773438 335.101562 662.023438 334.875 661.726562 334.5 C 661.425781 334.199219 661.351562 333.523438 661.5 333.148438 C 661.648438 332.773438 662.101562 332.25 662.550781 332.175781 C 662.925781 332.101562 663.601562 332.175781 663.898438 332.476562 C 664.199219 332.851562 664.5 333.824219 664.273438 334.273438 C 664.050781 334.726562 663.148438 335.175781 662.625 335.101562 C 662.175781 335.023438 661.425781 334.273438 661.425781 333.75 C 661.425781 333 662.925781 331.425781 663.976562 330.824219 C 664.949219 330.300781 666.601562 330 667.273438 330.300781 C 667.726562 330.449219 668.023438 330.976562 668.101562 331.425781 C 668.175781 331.800781 668.175781 332.25 667.726562 332.699219 C 666.300781 334.351562 656.550781 339.074219 654.300781 339 C 653.550781 339 653.023438 338.699219 652.800781 338.25 C 652.574219 337.949219 652.5 337.351562 652.726562 336.898438 C 653.25 335.925781 655.648438 334.648438 657.375 333.675781 C 659.101562 332.699219 661.800781 331.125 663 331.273438 C 663.601562 331.351562 664.199219 331.875 664.351562 332.324219 C 664.5 332.773438 664.351562 333.300781 663.824219 333.976562 C 662.25 336.148438 652.351562 342.375 648.75 344.550781 C 646.875 345.675781 645.375 346.726562 644.324219 346.726562 C 643.648438 346.726562 642.976562 346.351562 642.824219 345.898438 C 642.601562 345.449219 642.75 344.773438 643.351562 344.023438 C 645.75 340.875 667.425781 328.800781 671.476562 328.5 C 672.523438 328.351562 673.351562 328.726562 673.574219 329.25 C 673.800781 329.773438 673.351562 330.75 672.601562 331.574219 C 670.875 333.601562 664.875 335.851562 660.449219 338.625 C 654.898438 342.226562 645.898438 349.800781 642.148438 351.601562 C 640.726562 352.273438 639.449219 352.875 638.851562 352.574219 C 638.398438 352.273438 638.101562 351.300781 638.25 350.625 C 638.476562 349.800781 639.375 349.199219 640.574219 348.226562 C 643.125 346.273438 649.648438 342.675781 653.773438 340.351562 C 657.300781 338.476562 661.726562 335.324219 663.675781 335.324219 C 664.5 335.398438 665.25 335.851562 665.398438 336.300781 C 665.550781 336.75 664.648438 338.175781 664.648438 338.175781 " clip-rule="nonzero"/></clipPath><clipPath id="26ce391110"><path d="M 613.878906 298.386719 L 826.128906 298.386719 L 826.128906 511 L 613.878906 511 Z M 613.878906 298.386719 " clip-rule="nonzero"/></clipPath></defs><g clip-path="url(#8e587c68ff)"><g clip-path="url(#04cb91b57b)"><path fill="#553410" d="M 635.175781 325.351562 L 676.703125 325.351562 L 676.703125 355.726562 L 635.175781 355.726562 Z M 635.175781 325.351562 " fill-opacity="1" fill-rule="nonzero"/></g></g><path fill="#553410" d="M 677.660156 500.367188 C 677.21875 500.367188 676.78125 500.339844 676.34375 500.285156 C 675.90625 500.230469 675.472656 500.148438 675.046875 500.039062 C 674.617188 499.933594 674.199219 499.796875 673.789062 499.636719 C 673.378906 499.476562 672.976562 499.289062 672.589844 499.078125 C 672.203125 498.867188 671.828125 498.636719 671.472656 498.378906 C 671.113281 498.121094 670.769531 497.84375 670.445312 497.542969 C 670.125 497.242188 669.820312 496.925781 669.535156 496.589844 C 669.25 496.25 668.988281 495.898438 668.746094 495.527344 C 668.507812 495.15625 668.292969 494.773438 668.097656 494.378906 C 667.90625 493.980469 667.738281 493.574219 667.597656 493.15625 C 667.457031 492.738281 667.339844 492.3125 667.25 491.878906 C 667.160156 491.449219 667.101562 491.011719 667.066406 490.574219 C 667.03125 490.132812 667.023438 489.691406 667.042969 489.253906 C 667.0625 488.8125 667.109375 488.375 667.1875 487.9375 C 667.261719 487.503906 667.363281 487.074219 667.488281 486.652344 C 667.617188 486.230469 667.769531 485.820312 667.949219 485.414062 L 710.472656 389.738281 C 710.757812 389.101562 711.097656 388.496094 711.5 387.925781 C 711.90625 387.355469 712.359375 386.832031 712.863281 386.351562 C 713.371094 385.867188 713.917969 385.441406 714.507812 385.070312 C 715.097656 384.695312 715.71875 384.382812 716.371094 384.132812 C 717.023438 383.882812 717.691406 383.699219 718.378906 383.578125 C 719.066406 383.460938 719.761719 383.410156 720.457031 383.425781 C 721.15625 383.445312 721.847656 383.53125 722.527344 383.683594 C 723.207031 383.835938 723.867188 384.054688 724.503906 384.339844 C 725.144531 384.621094 725.746094 384.964844 726.316406 385.367188 C 726.890625 385.769531 727.414062 386.226562 727.894531 386.730469 C 728.375 387.238281 728.804688 387.785156 729.175781 388.375 C 729.550781 388.964844 729.863281 389.585938 730.113281 390.238281 C 730.363281 390.890625 730.546875 391.558594 730.667969 392.246094 C 730.785156 392.933594 730.835938 393.628906 730.816406 394.324219 C 730.800781 395.023438 730.714844 395.710938 730.5625 396.394531 C 730.40625 397.074219 730.191406 397.734375 729.90625 398.371094 L 687.382812 494.046875 C 686.964844 494.988281 686.421875 495.851562 685.757812 496.632812 C 685.089844 497.417969 684.324219 498.089844 683.460938 498.648438 C 682.597656 499.210938 681.671875 499.636719 680.6875 499.929688 C 679.699219 500.222656 678.691406 500.367188 677.660156 500.367188 Z M 677.660156 500.367188 " fill-opacity="1" fill-rule="nonzero"/><path fill="#553410" d="M 733.472656 457.84375 C 731.382812 457.808594 729.308594 457.605469 727.25 457.238281 C 725.191406 456.871094 723.175781 456.34375 721.199219 455.65625 C 719.226562 454.96875 717.320312 454.128906 715.476562 453.136719 C 713.636719 452.144531 711.886719 451.011719 710.226562 449.742188 C 708.566406 448.472656 707.015625 447.078125 705.578125 445.5625 C 704.136719 444.046875 702.828125 442.425781 701.644531 440.699219 C 700.464844 438.972656 699.425781 437.167969 698.535156 435.277344 C 697.640625 433.386719 696.902344 431.4375 696.320312 429.429688 C 696.085938 428.769531 695.917969 428.089844 695.820312 427.398438 C 695.71875 426.703125 695.6875 426.007812 695.726562 425.304688 C 695.765625 424.605469 695.871094 423.917969 696.046875 423.238281 C 696.21875 422.558594 696.460938 421.902344 696.761719 421.273438 C 697.066406 420.640625 697.429688 420.042969 697.851562 419.484375 C 698.273438 418.925781 698.746094 418.414062 699.269531 417.945312 C 699.796875 417.480469 700.359375 417.070312 700.964844 416.714844 C 701.570312 416.359375 702.203125 416.070312 702.863281 415.839844 C 703.527344 415.609375 704.207031 415.449219 704.898438 415.351562 C 705.59375 415.257812 706.292969 415.230469 706.992188 415.273438 C 707.691406 415.316406 708.378906 415.429688 709.058594 415.609375 C 709.734375 415.785156 710.390625 416.03125 711.019531 416.339844 C 711.648438 416.648438 712.242188 417.015625 712.796875 417.441406 C 713.355469 417.867188 713.863281 418.34375 714.328125 418.871094 C 714.789062 419.394531 715.195312 419.964844 715.546875 420.570312 C 715.898438 421.175781 716.1875 421.8125 716.410156 422.476562 C 716.648438 423.4375 716.957031 424.375 717.34375 425.289062 C 717.730469 426.199219 718.1875 427.074219 718.714844 427.914062 C 719.238281 428.753906 719.828125 429.542969 720.484375 430.289062 C 721.136719 431.035156 721.84375 431.722656 722.609375 432.351562 C 723.371094 432.984375 724.179688 433.550781 725.035156 434.050781 C 725.886719 434.554688 726.777344 434.984375 727.699219 435.34375 C 728.621094 435.703125 729.566406 435.988281 730.535156 436.195312 C 731.503906 436.402344 732.484375 436.53125 733.472656 436.582031 C 750.683594 436.582031 762.707031 423.464844 762.707031 404.691406 C 762.707031 403.300781 762.640625 401.910156 762.503906 400.523438 C 762.367188 399.136719 762.164062 397.761719 761.890625 396.398438 C 761.621094 395.03125 761.285156 393.683594 760.878906 392.347656 C 760.476562 391.015625 760.007812 389.707031 759.476562 388.417969 C 758.945312 387.132812 758.351562 385.875 757.695312 384.644531 C 757.042969 383.417969 756.328125 382.222656 755.554688 381.066406 C 754.78125 379.90625 753.953125 378.789062 753.074219 377.710938 C 752.191406 376.632812 751.257812 375.601562 750.273438 374.617188 C 749.292969 373.628906 748.261719 372.695312 747.1875 371.808594 C 746.113281 370.925781 744.996094 370.09375 743.839844 369.320312 C 742.683594 368.542969 741.492188 367.828125 740.265625 367.167969 C 739.039062 366.511719 737.78125 365.914062 736.496094 365.378906 C 735.210938 364.84375 733.902344 364.371094 732.570312 363.964844 C 731.238281 363.558594 729.890625 363.214844 728.523438 362.941406 C 727.160156 362.667969 725.785156 362.460938 724.398438 362.320312 C 723.011719 362.179688 721.625 362.109375 720.230469 362.105469 L 720.183594 362.105469 C 719.335938 362.105469 718.484375 362.132812 717.636719 362.183594 C 716.789062 362.234375 715.941406 362.308594 715.097656 362.410156 C 714.253906 362.511719 713.414062 362.640625 712.574219 362.792969 C 711.738281 362.945312 710.90625 363.121094 710.082031 363.324219 C 709.257812 363.527344 708.4375 363.753906 707.625 364.003906 C 706.8125 364.253906 706.007812 364.53125 705.210938 364.828125 C 704.417969 365.128906 703.632812 365.453125 702.855469 365.796875 C 702.078125 366.144531 701.3125 366.515625 700.558594 366.90625 C 699.804688 367.300781 699.0625 367.714844 698.332031 368.152344 C 697.605469 368.589844 696.886719 369.046875 696.1875 369.527344 C 695.484375 370.007812 694.796875 370.507812 694.125 371.027344 C 693.453125 371.550781 692.796875 372.089844 692.160156 372.652344 C 691.519531 373.210938 690.898438 373.789062 690.292969 374.386719 C 689.6875 374.984375 689.101562 375.601562 688.535156 376.234375 C 687.96875 376.867188 687.417969 377.515625 686.890625 378.183594 C 686.359375 378.847656 685.851562 379.527344 685.363281 380.226562 C 684.875 380.921875 684.410156 381.632812 683.964844 382.355469 C 683.519531 383.082031 683.097656 383.816406 682.695312 384.566406 C 682.292969 385.316406 681.914062 386.078125 681.558594 386.851562 C 681.203125 387.621094 680.871094 388.40625 680.5625 389.199219 C 680.253906 389.988281 679.972656 390.789062 679.710938 391.601562 C 679.449219 392.410156 679.214844 393.226562 679.003906 394.050781 C 678.792969 394.871094 678.605469 395.703125 678.441406 396.535156 C 678.28125 397.371094 678.144531 398.210938 678.03125 399.054688 C 677.921875 399.894531 677.835938 400.742188 677.773438 401.589844 C 677.714844 402.4375 677.679688 403.285156 677.667969 404.136719 C 677.660156 404.988281 677.675781 405.835938 677.714844 406.6875 C 677.757812 407.535156 677.824219 408.382812 677.914062 409.226562 C 678.007812 410.074219 678.125 410.914062 678.265625 411.753906 C 678.410156 412.589844 678.578125 413.425781 678.769531 414.253906 C 678.960938 415.082031 679.179688 415.902344 679.421875 416.71875 C 679.664062 417.53125 679.929688 418.339844 680.21875 419.140625 C 680.457031 419.796875 680.628906 420.46875 680.734375 421.15625 C 680.839844 421.847656 680.878906 422.542969 680.847656 423.238281 C 680.816406 423.9375 680.714844 424.625 680.550781 425.300781 C 680.382812 425.980469 680.152344 426.636719 679.855469 427.265625 C 679.5625 427.898438 679.207031 428.496094 678.792969 429.058594 C 678.378906 429.621094 677.917969 430.140625 677.402344 430.609375 C 676.886719 431.082031 676.332031 431.496094 675.734375 431.859375 C 675.136719 432.222656 674.507812 432.519531 673.851562 432.757812 C 673.195312 432.996094 672.523438 433.167969 671.835938 433.273438 C 671.144531 433.378906 670.449219 433.417969 669.753906 433.386719 C 669.054688 433.355469 668.367188 433.257812 667.691406 433.089844 C 667.011719 432.925781 666.355469 432.691406 665.726562 432.398438 C 665.09375 432.101562 664.496094 431.746094 663.933594 431.335938 C 663.371094 430.921875 662.851562 430.457031 662.382812 429.941406 C 661.910156 429.425781 661.492188 428.871094 661.132812 428.273438 C 660.769531 427.675781 660.472656 427.050781 660.234375 426.394531 C 659.796875 425.195312 659.398438 423.984375 659.035156 422.761719 C 658.671875 421.539062 658.347656 420.308594 658.058594 419.0625 C 657.769531 417.820312 657.519531 416.570312 657.304688 415.316406 C 657.09375 414.058594 656.917969 412.792969 656.777344 411.527344 C 656.640625 410.257812 656.539062 408.988281 656.480469 407.714844 C 656.417969 406.441406 656.394531 405.164062 656.40625 403.890625 C 656.421875 402.613281 656.476562 401.339844 656.566406 400.070312 C 656.65625 398.796875 656.789062 397.527344 656.953125 396.265625 C 657.121094 395 657.328125 393.742188 657.570312 392.488281 C 657.8125 391.238281 658.09375 389.992188 658.410156 388.757812 C 658.726562 387.523438 659.082031 386.300781 659.472656 385.085938 C 659.863281 383.871094 660.289062 382.667969 660.753906 381.480469 C 661.214844 380.292969 661.714844 379.117188 662.246094 377.960938 C 662.78125 376.800781 663.347656 375.660156 663.949219 374.535156 C 664.550781 373.410156 665.183594 372.304688 665.851562 371.21875 C 666.519531 370.132812 667.222656 369.066406 667.953125 368.023438 C 668.683594 366.980469 669.449219 365.957031 670.242188 364.957031 C 671.035156 363.960938 671.855469 362.984375 672.707031 362.035156 C 673.558594 361.085938 674.4375 360.164062 675.347656 359.265625 C 676.253906 358.371094 677.1875 357.5 678.144531 356.660156 C 679.105469 355.820312 680.085938 355.007812 681.09375 354.226562 C 682.101562 353.445312 683.132812 352.695312 684.1875 351.976562 C 685.238281 351.253906 686.3125 350.566406 687.40625 349.914062 C 688.5 349.257812 689.613281 348.636719 690.746094 348.046875 C 691.875 347.457031 693.023438 346.902344 694.1875 346.382812 C 695.355469 345.863281 696.53125 345.378906 697.726562 344.929688 C 698.921875 344.480469 700.125 344.066406 701.34375 343.691406 C 702.5625 343.3125 703.792969 342.972656 705.03125 342.671875 C 706.269531 342.367188 707.515625 342.101562 708.769531 341.875 C 710.027344 341.644531 711.285156 341.457031 712.550781 341.300781 C 713.820312 341.148438 715.089844 341.035156 716.363281 340.957031 C 717.632812 340.882812 718.910156 340.84375 720.183594 340.84375 L 720.265625 340.84375 C 721.308594 340.847656 722.351562 340.875 723.390625 340.929688 C 724.433594 340.980469 725.472656 341.0625 726.511719 341.164062 C 727.550781 341.269531 728.585938 341.398438 729.617188 341.554688 C 730.648438 341.710938 731.675781 341.890625 732.699219 342.097656 C 733.722656 342.304688 734.738281 342.535156 735.75 342.789062 C 736.761719 343.042969 737.765625 343.324219 738.765625 343.628906 C 739.761719 343.933594 740.753906 344.261719 741.734375 344.617188 C 742.714844 344.96875 743.6875 345.347656 744.652344 345.75 C 745.613281 346.148438 746.566406 346.574219 747.511719 347.019531 C 748.453125 347.46875 749.382812 347.9375 750.304688 348.433594 C 751.222656 348.925781 752.128906 349.441406 753.023438 349.980469 C 753.917969 350.515625 754.796875 351.078125 755.664062 351.65625 C 756.53125 352.238281 757.382812 352.839844 758.21875 353.460938 C 759.058594 354.085938 759.878906 354.726562 760.683594 355.390625 C 761.492188 356.054688 762.28125 356.738281 763.050781 357.4375 C 763.824219 358.140625 764.578125 358.859375 765.316406 359.597656 C 766.050781 360.335938 766.769531 361.09375 767.46875 361.867188 C 768.171875 362.640625 768.851562 363.429688 769.511719 364.238281 C 770.171875 365.046875 770.8125 365.867188 771.433594 366.707031 C 772.054688 367.546875 772.65625 368.398438 773.234375 369.265625 C 773.8125 370.136719 774.371094 371.015625 774.90625 371.910156 C 775.441406 372.808594 775.957031 373.714844 776.449219 374.636719 C 776.9375 375.554688 777.40625 376.488281 777.851562 377.433594 C 778.296875 378.375 778.71875 379.328125 779.117188 380.292969 C 779.519531 381.257812 779.894531 382.230469 780.242188 383.214844 C 780.59375 384.195312 780.921875 385.1875 781.222656 386.183594 C 781.527344 387.183594 781.804688 388.1875 782.058594 389.199219 C 782.3125 390.214844 782.539062 391.230469 782.742188 392.253906 C 782.945312 393.277344 783.125 394.304688 783.277344 395.335938 C 783.429688 396.371094 783.558594 397.40625 783.660156 398.441406 C 783.761719 399.480469 783.839844 400.523438 783.890625 401.5625 C 783.941406 402.605469 783.96875 403.648438 783.96875 404.691406 C 783.96875 435.488281 762.734375 457.84375 733.472656 457.84375 Z M 733.472656 457.84375 " fill-opacity="1" fill-rule="nonzero"/><g clip-path="url(#26ce391110)"><path fill="#553410" d="M 720.183594 511 C 718.445312 511 716.707031 510.957031 714.96875 510.871094 C 713.230469 510.785156 711.496094 510.65625 709.765625 510.488281 C 708.03125 510.316406 706.308594 510.101562 704.585938 509.847656 C 702.863281 509.59375 701.152344 509.296875 699.445312 508.957031 C 697.738281 508.617188 696.042969 508.234375 694.355469 507.8125 C 692.667969 507.390625 690.988281 506.925781 689.324219 506.421875 C 687.660156 505.914062 686.007812 505.371094 684.371094 504.785156 C 682.734375 504.199219 681.109375 503.570312 679.503906 502.90625 C 677.894531 502.242188 676.304688 501.535156 674.730469 500.792969 C 673.160156 500.046875 671.605469 499.265625 670.070312 498.445312 C 668.539062 497.625 667.023438 496.769531 665.53125 495.875 C 664.039062 494.980469 662.570312 494.050781 661.125 493.082031 C 659.675781 492.117188 658.253906 491.113281 656.859375 490.078125 C 655.460938 489.042969 654.089844 487.972656 652.742188 486.867188 C 651.398438 485.765625 650.082031 484.628906 648.792969 483.460938 C 647.503906 482.292969 646.246094 481.09375 645.015625 479.863281 C 643.785156 478.632812 642.585938 477.371094 641.417969 476.082031 C 640.246094 474.792969 639.113281 473.476562 638.007812 472.132812 C 636.90625 470.789062 635.835938 469.417969 634.796875 468.019531 C 633.761719 466.621094 632.761719 465.199219 631.792969 463.753906 C 630.828125 462.304688 629.898438 460.835938 629.003906 459.34375 C 628.109375 457.851562 627.25 456.339844 626.429688 454.804688 C 625.609375 453.269531 624.828125 451.714844 624.085938 450.144531 C 623.339844 448.570312 622.636719 446.980469 621.96875 445.375 C 621.304688 443.765625 620.679688 442.144531 620.09375 440.503906 C 619.503906 438.867188 618.960938 437.214844 618.457031 435.550781 C 617.949219 433.886719 617.484375 432.210938 617.0625 430.523438 C 616.640625 428.835938 616.257812 427.136719 615.921875 425.429688 C 615.582031 423.726562 615.285156 422.011719 615.027344 420.289062 C 614.773438 418.570312 614.558594 416.84375 614.390625 415.113281 C 614.21875 413.378906 614.089844 411.644531 614.003906 409.90625 C 613.921875 408.171875 613.878906 406.429688 613.878906 404.691406 C 613.878906 402.953125 613.921875 401.214844 614.003906 399.476562 C 614.089844 397.738281 614.21875 396.003906 614.390625 394.273438 C 614.558594 392.539062 614.773438 390.8125 615.027344 389.09375 C 615.285156 387.371094 615.582031 385.660156 615.921875 383.953125 C 616.257812 382.246094 616.640625 380.550781 617.0625 378.863281 C 617.484375 377.171875 617.949219 375.496094 618.457031 373.832031 C 618.960938 372.167969 619.503906 370.515625 620.09375 368.878906 C 620.679688 367.238281 621.304688 365.617188 621.96875 364.011719 C 622.636719 362.402344 623.339844 360.8125 624.085938 359.238281 C 624.828125 357.667969 625.609375 356.113281 626.429688 354.578125 C 627.25 353.042969 628.109375 351.53125 629.003906 350.039062 C 629.898438 348.546875 630.828125 347.078125 631.792969 345.632812 C 632.761719 344.183594 633.761719 342.761719 634.796875 341.363281 C 635.835938 339.96875 636.90625 338.597656 638.007812 337.25 C 639.113281 335.90625 640.246094 334.589844 641.417969 333.300781 C 642.585938 332.011719 643.785156 330.75 645.015625 329.523438 C 646.246094 328.292969 647.503906 327.09375 648.792969 325.921875 C 650.082031 324.753906 651.398438 323.621094 652.742188 322.515625 C 654.089844 321.410156 655.460938 320.34375 656.859375 319.304688 C 658.253906 318.269531 659.675781 317.269531 661.125 316.300781 C 662.570312 315.335938 664.039062 314.402344 665.53125 313.507812 C 667.023438 312.613281 668.539062 311.757812 670.070312 310.9375 C 671.605469 310.117188 673.160156 309.335938 674.730469 308.589844 C 676.304688 307.847656 677.894531 307.144531 679.503906 306.476562 C 681.109375 305.8125 682.734375 305.1875 684.371094 304.597656 C 686.007812 304.011719 687.660156 303.46875 689.324219 302.960938 C 690.988281 302.457031 692.667969 301.992188 694.355469 301.570312 C 696.042969 301.148438 697.738281 300.765625 699.445312 300.429688 C 701.152344 300.089844 702.863281 299.792969 704.585938 299.535156 C 706.308594 299.28125 708.03125 299.066406 709.765625 298.898438 C 711.496094 298.726562 713.230469 298.597656 714.96875 298.511719 C 716.707031 298.429688 718.445312 298.386719 720.183594 298.386719 C 721.925781 298.386719 723.664062 298.429688 725.402344 298.511719 C 727.136719 298.597656 728.871094 298.726562 730.605469 298.898438 C 732.335938 299.066406 734.0625 299.28125 735.78125 299.535156 C 737.503906 299.792969 739.21875 300.089844 740.921875 300.429688 C 742.628906 300.765625 744.328125 301.148438 746.015625 301.570312 C 747.703125 301.992188 749.378906 302.457031 751.042969 302.960938 C 752.707031 303.46875 754.359375 304.011719 755.996094 304.597656 C 757.636719 305.1875 759.257812 305.8125 760.867188 306.476562 C 762.472656 307.144531 764.0625 307.847656 765.636719 308.589844 C 767.207031 309.335938 768.761719 310.117188 770.296875 310.9375 C 771.832031 311.757812 773.34375 312.613281 774.835938 313.507812 C 776.328125 314.402344 777.796875 315.335938 779.246094 316.300781 C 780.691406 317.269531 782.113281 318.269531 783.511719 319.304688 C 784.910156 320.34375 786.28125 321.410156 787.625 322.515625 C 788.96875 323.621094 790.285156 324.753906 791.574219 325.921875 C 792.863281 327.09375 794.125 328.292969 795.355469 329.523438 C 796.585938 330.75 797.785156 332.011719 798.953125 333.300781 C 800.121094 334.589844 801.257812 335.90625 802.359375 337.25 C 803.464844 338.597656 804.535156 339.96875 805.570312 341.363281 C 806.605469 342.761719 807.609375 344.183594 808.574219 345.632812 C 809.542969 347.078125 810.472656 348.546875 811.367188 350.039062 C 812.261719 351.53125 813.117188 353.042969 813.9375 354.578125 C 814.757812 356.113281 815.539062 357.667969 816.285156 359.238281 C 817.027344 360.8125 817.734375 362.402344 818.398438 364.011719 C 819.066406 365.617188 819.691406 367.238281 820.277344 368.878906 C 820.863281 370.515625 821.410156 372.167969 821.914062 373.832031 C 822.417969 375.496094 822.882812 377.171875 823.304688 378.863281 C 823.726562 380.550781 824.109375 382.246094 824.449219 383.953125 C 824.789062 385.660156 825.085938 387.371094 825.339844 389.09375 C 825.59375 390.8125 825.808594 392.539062 825.980469 394.273438 C 826.148438 396.003906 826.277344 397.738281 826.363281 399.476562 C 826.449219 401.214844 826.492188 402.953125 826.492188 404.691406 C 826.488281 406.429688 826.445312 408.167969 826.355469 409.90625 C 826.269531 411.644531 826.140625 413.378906 825.96875 415.109375 C 825.796875 416.839844 825.582031 418.5625 825.324219 420.285156 C 825.066406 422.003906 824.769531 423.71875 824.429688 425.421875 C 824.085938 427.128906 823.703125 428.824219 823.28125 430.511719 C 822.855469 432.199219 822.390625 433.875 821.886719 435.539062 C 821.378906 437.203125 820.832031 438.851562 820.246094 440.488281 C 819.660156 442.125 819.03125 443.75 818.367188 445.355469 C 817.699219 446.960938 816.996094 448.550781 816.25 450.121094 C 815.503906 451.695312 814.722656 453.246094 813.902344 454.78125 C 813.082031 456.3125 812.222656 457.828125 811.328125 459.316406 C 810.433594 460.808594 809.503906 462.277344 808.539062 463.722656 C 807.570312 465.167969 806.570312 466.589844 805.53125 467.988281 C 804.496094 469.382812 803.425781 470.753906 802.324219 472.097656 C 801.21875 473.445312 800.082031 474.761719 798.914062 476.046875 C 797.746094 477.335938 796.546875 478.597656 795.320312 479.828125 C 794.089844 481.054688 792.828125 482.253906 791.542969 483.421875 C 790.253906 484.589844 788.9375 485.726562 787.589844 486.832031 C 786.246094 487.933594 784.875 489.003906 783.480469 490.039062 C 782.082031 491.078125 780.660156 492.078125 779.214844 493.046875 C 777.769531 494.011719 776.300781 494.941406 774.808594 495.835938 C 773.320312 496.730469 771.804688 497.589844 770.273438 498.410156 C 768.738281 499.230469 767.1875 500.011719 765.613281 500.757812 C 764.042969 501.5 762.453125 502.207031 760.847656 502.875 C 759.242188 503.539062 757.617188 504.167969 755.980469 504.753906 C 754.34375 505.339844 752.695312 505.886719 751.03125 506.394531 C 749.367188 506.898438 747.691406 507.363281 746.003906 507.789062 C 744.316406 508.210938 742.621094 508.59375 740.914062 508.9375 C 739.210938 509.277344 737.496094 509.574219 735.777344 509.832031 C 734.054688 510.089844 732.332031 510.304688 730.601562 510.476562 C 728.871094 510.648438 727.136719 510.777344 725.398438 510.863281 C 723.660156 510.953125 721.921875 510.996094 720.183594 511 Z M 720.183594 319.648438 C 718.792969 319.648438 717.402344 319.679688 716.011719 319.75 C 714.621094 319.816406 713.234375 319.917969 711.847656 320.054688 C 710.464844 320.191406 709.082031 320.363281 707.707031 320.566406 C 706.328125 320.769531 704.957031 321.007812 703.59375 321.28125 C 702.226562 321.550781 700.871094 321.855469 699.519531 322.195312 C 698.167969 322.535156 696.828125 322.90625 695.496094 323.308594 C 694.164062 323.710938 692.84375 324.148438 691.535156 324.617188 C 690.222656 325.085938 688.925781 325.585938 687.640625 326.121094 C 686.351562 326.652344 685.082031 327.214844 683.824219 327.8125 C 682.566406 328.40625 681.320312 329.03125 680.09375 329.6875 C 678.867188 330.34375 677.65625 331.03125 676.460938 331.746094 C 675.269531 332.460938 674.09375 333.207031 672.9375 333.980469 C 671.777344 334.753906 670.640625 335.554688 669.523438 336.382812 C 668.40625 337.210938 667.308594 338.066406 666.230469 338.949219 C 665.15625 339.832031 664.101562 340.742188 663.070312 341.675781 C 662.039062 342.613281 661.03125 343.570312 660.046875 344.554688 C 659.0625 345.539062 658.105469 346.546875 657.167969 347.578125 C 656.234375 348.609375 655.328125 349.664062 654.445312 350.738281 C 653.558594 351.816406 652.703125 352.914062 651.875 354.03125 C 651.046875 355.148438 650.246094 356.285156 649.472656 357.441406 C 648.699219 358.601562 647.953125 359.777344 647.238281 360.96875 C 646.523438 362.164062 645.835938 363.375 645.179688 364.601562 C 644.523438 365.828125 643.898438 367.070312 643.304688 368.332031 C 642.710938 369.589844 642.144531 370.859375 641.613281 372.144531 C 641.078125 373.433594 640.578125 374.730469 640.109375 376.039062 C 639.640625 377.351562 639.203125 378.671875 638.800781 380.003906 C 638.398438 381.335938 638.027344 382.675781 637.6875 384.027344 C 637.347656 385.378906 637.042969 386.734375 636.773438 388.101562 C 636.5 389.464844 636.265625 390.835938 636.058594 392.214844 C 635.855469 393.589844 635.683594 394.972656 635.546875 396.355469 C 635.410156 397.742188 635.308594 399.128906 635.242188 400.519531 C 635.171875 401.910156 635.140625 403.300781 635.140625 404.691406 C 635.140625 406.082031 635.171875 407.476562 635.242188 408.863281 C 635.308594 410.253906 635.410156 411.644531 635.546875 413.027344 C 635.683594 414.414062 635.855469 415.792969 636.058594 417.171875 C 636.265625 418.546875 636.5 419.917969 636.773438 421.285156 C 637.042969 422.648438 637.347656 424.007812 637.6875 425.355469 C 638.027344 426.707031 638.398438 428.046875 638.800781 429.378906 C 639.203125 430.710938 639.640625 432.03125 640.109375 433.34375 C 640.578125 434.652344 641.078125 435.953125 641.613281 437.238281 C 642.144531 438.523438 642.710938 439.796875 643.304688 441.054688 C 643.898438 442.3125 644.523438 443.554688 645.179688 444.78125 C 645.835938 446.007812 646.523438 447.21875 647.238281 448.414062 C 647.953125 449.609375 648.699219 450.78125 649.472656 451.941406 C 650.246094 453.097656 651.046875 454.234375 651.875 455.351562 C 652.703125 456.472656 653.558594 457.566406 654.445312 458.644531 C 655.328125 459.71875 656.234375 460.773438 657.167969 461.804688 C 658.105469 462.835938 659.0625 463.84375 660.046875 464.828125 C 661.03125 465.8125 662.039062 466.773438 663.070312 467.707031 C 664.101562 468.640625 665.15625 469.550781 666.230469 470.433594 C 667.308594 471.316406 668.40625 472.171875 669.523438 473 C 670.640625 473.828125 671.777344 474.632812 672.9375 475.40625 C 674.09375 476.175781 675.269531 476.921875 676.460938 477.636719 C 677.65625 478.351562 678.867188 479.039062 680.09375 479.695312 C 681.320312 480.351562 682.566406 480.976562 683.824219 481.570312 C 685.082031 482.167969 686.351562 482.730469 687.640625 483.261719 C 688.925781 483.796875 690.222656 484.296875 691.535156 484.765625 C 692.84375 485.234375 694.164062 485.671875 695.496094 486.074219 C 696.828125 486.480469 698.167969 486.851562 699.519531 487.1875 C 700.871094 487.527344 702.226562 487.832031 703.59375 488.101562 C 704.957031 488.375 706.328125 488.613281 707.707031 488.816406 C 709.082031 489.019531 710.464844 489.191406 711.847656 489.328125 C 713.234375 489.464844 714.621094 489.566406 716.011719 489.632812 C 717.402344 489.703125 718.792969 489.738281 720.183594 489.738281 C 721.574219 489.738281 722.96875 489.703125 724.355469 489.632812 C 725.746094 489.566406 727.136719 489.464844 728.519531 489.328125 C 729.90625 489.191406 731.285156 489.019531 732.664062 488.816406 C 734.039062 488.613281 735.410156 488.375 736.777344 488.101562 C 738.140625 487.832031 739.5 487.527344 740.847656 487.1875 C 742.199219 486.851562 743.539062 486.480469 744.871094 486.074219 C 746.203125 485.671875 747.523438 485.234375 748.835938 484.765625 C 750.144531 484.296875 751.445312 483.796875 752.730469 483.261719 C 754.015625 482.730469 755.289062 482.167969 756.546875 481.570312 C 757.804688 480.976562 759.046875 480.351562 760.273438 479.695312 C 761.5 479.039062 762.710938 478.351562 763.90625 477.636719 C 765.101562 476.921875 766.277344 476.175781 767.433594 475.40625 C 768.589844 474.632812 769.726562 473.828125 770.847656 473 C 771.964844 472.171875 773.058594 471.316406 774.136719 470.433594 C 775.210938 469.550781 776.265625 468.640625 777.296875 467.707031 C 778.328125 466.773438 779.335938 465.8125 780.320312 464.828125 C 781.304688 463.84375 782.265625 462.835938 783.199219 461.804688 C 784.132812 460.773438 785.042969 459.71875 785.925781 458.644531 C 786.808594 457.566406 787.664062 456.472656 788.492188 455.351562 C 789.324219 454.234375 790.125 453.097656 790.898438 451.941406 C 791.671875 450.78125 792.414062 449.609375 793.128906 448.414062 C 793.84375 447.21875 794.53125 446.007812 795.1875 444.78125 C 795.84375 443.554688 796.46875 442.3125 797.0625 441.054688 C 797.660156 439.796875 798.222656 438.523438 798.757812 437.238281 C 799.289062 435.953125 799.789062 434.652344 800.257812 433.34375 C 800.726562 432.03125 801.164062 430.710938 801.566406 429.378906 C 801.972656 428.046875 802.34375 426.707031 802.679688 425.355469 C 803.019531 424.007812 803.324219 422.648438 803.59375 421.285156 C 803.867188 419.917969 804.105469 418.546875 804.308594 417.171875 C 804.511719 415.792969 804.683594 414.414062 804.820312 413.027344 C 804.957031 411.644531 805.058594 410.253906 805.128906 408.863281 C 805.195312 407.476562 805.230469 406.082031 805.230469 404.691406 C 805.226562 403.300781 805.191406 401.910156 805.121094 400.519531 C 805.050781 399.128906 804.949219 397.742188 804.8125 396.359375 C 804.671875 394.972656 804.5 393.59375 804.296875 392.21875 C 804.089844 390.84375 803.851562 389.472656 803.578125 388.105469 C 803.304688 386.742188 803 385.386719 802.660156 384.035156 C 802.320312 382.6875 801.949219 381.347656 801.546875 380.015625 C 801.140625 378.683594 800.703125 377.363281 800.234375 376.054688 C 799.761719 374.746094 799.261719 373.445312 798.730469 372.160156 C 798.195312 370.875 797.632812 369.605469 797.035156 368.347656 C 796.441406 367.089844 795.8125 365.847656 795.15625 364.621094 C 794.5 363.394531 793.816406 362.183594 793.097656 360.992188 C 792.382812 359.796875 791.640625 358.625 790.867188 357.46875 C 790.09375 356.308594 789.292969 355.171875 788.460938 354.054688 C 787.632812 352.9375 786.777344 351.84375 785.894531 350.765625 C 785.011719 349.691406 784.101562 348.636719 783.167969 347.605469 C 782.234375 346.578125 781.273438 345.570312 780.289062 344.585938 C 779.308594 343.601562 778.300781 342.640625 777.269531 341.707031 C 776.238281 340.773438 775.183594 339.863281 774.109375 338.980469 C 773.035156 338.097656 771.9375 337.242188 770.820312 336.414062 C 769.703125 335.585938 768.566406 334.785156 767.410156 334.011719 C 766.253906 333.238281 765.078125 332.492188 763.882812 331.777344 C 762.691406 331.0625 761.480469 330.375 760.253906 329.71875 C 759.027344 329.0625 757.785156 328.4375 756.527344 327.839844 C 755.269531 327.246094 754 326.679688 752.714844 326.148438 C 751.429688 325.613281 750.132812 325.113281 748.820312 324.644531 C 747.511719 324.171875 746.191406 323.734375 744.859375 323.332031 C 743.527344 322.925781 742.1875 322.554688 740.839844 322.214844 C 739.488281 321.875 738.132812 321.570312 736.769531 321.296875 C 735.40625 321.023438 734.035156 320.785156 732.65625 320.582031 C 731.28125 320.375 729.902344 320.203125 728.515625 320.066406 C 727.132812 319.925781 725.746094 319.824219 724.355469 319.753906 C 722.964844 319.683594 721.574219 319.648438 720.183594 319.648438 Z M 720.183594 319.648438 " fill-opacity="1" fill-rule="nonzero"/></g></svg>